<?xml version="1.0" encoding="UTF-8" standalone="no" ?>
<!DOCTYPE svg PUBLIC "-//W3C//DTD SVG 1.1//EN" "http://www.w3.org/Graphics/SVG/1.1/DTD/svg11.dtd">
<svg xmlns="http://www.w3.org/2000/svg" xmlns:xlink="http://www.w3.org/1999/xlink" version="1.1" width="1080" height="1080" viewBox="0 0 1080 1080" xml:space="preserve">
<desc>Created with Fabric.js 5.2.4</desc>
<defs>
</defs>
<g transform="matrix(1 0 0 1 540 540)" id="47b2ca2a-bfe1-4154-a077-b501aa36f230"  >
<rect style="stroke: none; stroke-width: 1; stroke-dasharray: none; stroke-linecap: butt; stroke-dashoffset: 0; stroke-linejoin: miter; stroke-miterlimit: 4; fill: rgb(255,255,255); fill-rule: nonzero; opacity: 1; visibility: hidden;" vector-effect="non-scaling-stroke"  x="-540" y="-540" rx="0" ry="0" width="1080" height="1080" />
</g>
<g transform="matrix(1 0 0 1 540 540)" id="d1bb004c-7e32-4639-9a78-a1cf745745c0"  >
</g>
<g transform="matrix(5.36 0 0 5.36 540 511.29)"  >
<g style="" vector-effect="non-scaling-stroke"   >
		<g transform="matrix(1 0 0 1 -0.48 -52)"  >
<path style="stroke: none; stroke-width: 1; stroke-dasharray: none; stroke-linecap: butt; stroke-dashoffset: 0; stroke-linejoin: miter; stroke-miterlimit: 4; fill: rgb(19,121,248); fill-rule: evenodd; opacity: 0.903;" vector-effect="non-scaling-stroke"  transform=" translate(-169.46, -72.31)" d="M 167.5 69.5 C 172.159 69.0146 173.492 70.848 171.5 75 C 166.728 75.8104 165.395 73.9771 167.5 69.5 Z" stroke-linecap="round" />
</g>
		<g transform="matrix(1 0 0 1 -16.45 -49.36)"  >
<path style="stroke: none; stroke-width: 1; stroke-dasharray: none; stroke-linecap: butt; stroke-dashoffset: 0; stroke-linejoin: miter; stroke-miterlimit: 4; fill: rgb(19,121,247); fill-rule: evenodd; opacity: 0.869;" vector-effect="non-scaling-stroke"  transform=" translate(-153.5, -74.95)" d="M 151.5 71.5 C 154.352 71.3524 156.019 72.6857 156.5 75.5 C 154.209 79.5291 152.209 79.3625 150.5 75 C 150.648 73.7441 150.982 72.5774 151.5 71.5 Z" stroke-linecap="round" />
</g>
		<g transform="matrix(1 0 0 1 15.55 -49.47)"  >
<path style="stroke: none; stroke-width: 1; stroke-dasharray: none; stroke-linecap: butt; stroke-dashoffset: 0; stroke-linejoin: miter; stroke-miterlimit: 4; fill: rgb(19,121,248); fill-rule: evenodd; opacity: 0.898;" vector-effect="non-scaling-stroke"  transform=" translate(-185.5, -74.83)" d="M 184.5 71.5 C 187.243 71.0772 188.576 72.2439 188.5 75 C 186.754 79.3318 184.754 79.3318 182.5 75 C 182.978 73.6974 183.645 72.5307 184.5 71.5 Z" stroke-linecap="round" />
</g>
		<g transform="matrix(1 0 0 1 -31.22 -42.06)"  >
<path style="stroke: none; stroke-width: 1; stroke-dasharray: none; stroke-linecap: butt; stroke-dashoffset: 0; stroke-linejoin: miter; stroke-miterlimit: 4; fill: rgb(19,120,248); fill-rule: evenodd; opacity: 0.925;" vector-effect="non-scaling-stroke"  transform=" translate(-138.73, -82.24)" d="M 136.5 79.5 C 138.288 79.2148 139.955 79.5481 141.5 80.5 C 142.553 83.953 141.219 85.453 137.5 85 C 135.365 83.4443 135.032 81.6109 136.5 79.5 Z" stroke-linecap="round" />
</g>
		<g transform="matrix(1 0 0 1 30.29 -42.11)"  >
<path style="stroke: none; stroke-width: 1; stroke-dasharray: none; stroke-linecap: butt; stroke-dashoffset: 0; stroke-linejoin: miter; stroke-miterlimit: 4; fill: rgb(19,121,248); fill-rule: evenodd; opacity: 0.937;" vector-effect="non-scaling-stroke"  transform=" translate(-200.24, -82.2)" d="M 197.5 79.5 C 202.123 78.4082 203.956 80.0748 203 84.5 C 198.325 86.334 196.492 84.6673 197.5 79.5 Z" stroke-linecap="round" />
</g>
		<g transform="matrix(1 0 0 1 -7.13 -41.84)"  >
<path style="stroke: none; stroke-width: 1; stroke-dasharray: none; stroke-linecap: butt; stroke-dashoffset: 0; stroke-linejoin: miter; stroke-miterlimit: 4; fill: rgb(21,146,233); fill-rule: evenodd; opacity: 0.927;" vector-effect="non-scaling-stroke"  transform=" translate(-162.82, -82.47)" d="M 161.5 77.5 C 166.549 78.1939 168.216 80.8606 166.5 85.5 C 164.044 88.0801 161.544 88.0801 159 85.5 C 157.837 82.0289 158.67 79.3623 161.5 77.5 Z" stroke-linecap="round" />
</g>
		<g transform="matrix(1 0 0 1 6.15 -42.1)"  >
<path style="stroke: none; stroke-width: 1; stroke-dasharray: none; stroke-linecap: butt; stroke-dashoffset: 0; stroke-linejoin: miter; stroke-miterlimit: 4; fill: rgb(21,146,233); fill-rule: evenodd; opacity: 0.916;" vector-effect="non-scaling-stroke"  transform=" translate(-176.1, -82.21)" d="M 174.5 77.5 C 180.022 77.58 181.856 80.2467 180 85.5 C 176.027 88.1074 173.194 87.1074 171.5 82.5 C 172.092 80.5775 173.092 78.9108 174.5 77.5 Z" stroke-linecap="round" />
</g>
		<g transform="matrix(1 0 0 1 -19.87 -37.93)"  >
<path style="stroke: none; stroke-width: 1; stroke-dasharray: none; stroke-linecap: butt; stroke-dashoffset: 0; stroke-linejoin: miter; stroke-miterlimit: 4; fill: rgb(21,147,234); fill-rule: evenodd; opacity: 0.952;" vector-effect="non-scaling-stroke"  transform=" translate(-150.07, -86.37)" d="M 149.5 81.5 C 154.151 82.2325 155.651 84.8991 154 89.5 C 149.742 92.5806 146.909 91.5806 145.5 86.5 C 146.127 84.2127 147.46 82.546 149.5 81.5 Z" stroke-linecap="round" />
</g>
		<g transform="matrix(1 0 0 1 19.03 -37.8)"  >
<path style="stroke: none; stroke-width: 1; stroke-dasharray: none; stroke-linecap: butt; stroke-dashoffset: 0; stroke-linejoin: miter; stroke-miterlimit: 4; fill: rgb(21,146,233); fill-rule: evenodd; opacity: 0.947;" vector-effect="non-scaling-stroke"  transform=" translate(-188.98, -86.5)" d="M 188.5 81.5 C 194.945 84.5918 195.112 87.9252 189 91.5 C 184.592 90.3476 183.425 87.6809 185.5 83.5 C 186.602 82.8243 187.602 82.1577 188.5 81.5 Z" stroke-linecap="round" />
</g>
		<g transform="matrix(1 0 0 1 -31.13 -30.8)"  >
<path style="stroke: none; stroke-width: 1; stroke-dasharray: none; stroke-linecap: butt; stroke-dashoffset: 0; stroke-linejoin: miter; stroke-miterlimit: 4; fill: rgb(20,140,237); fill-rule: evenodd; opacity: 0.884;" vector-effect="non-scaling-stroke"  transform=" translate(-138.82, -93.5)" d="M 142.5 91.5 C 140.167 93.1667 138.167 95.1667 136.5 97.5 C 133.957 93.8678 134.957 91.2011 139.5 89.5 C 140.739 89.9424 141.739 90.6091 142.5 91.5 Z" stroke-linecap="round" />
</g>
		<g transform="matrix(1 0 0 1 9.56 -32.55)"  >
<path style="stroke: none; stroke-width: 1; stroke-dasharray: none; stroke-linecap: butt; stroke-dashoffset: 0; stroke-linejoin: miter; stroke-miterlimit: 4; fill: rgb(21,169,220); fill-rule: evenodd; opacity: 0.813;" vector-effect="non-scaling-stroke"  transform=" translate(-179.51, -91.75)" d="M 178.5 88.5 C 182.184 89.372 183.184 91.5386 181.5 95 C 176.382 94.8242 175.382 92.6576 178.5 88.5 Z" stroke-linecap="round" />
</g>
		<g transform="matrix(1 0 0 1 -11.48 -32)"  >
<path style="stroke: none; stroke-width: 1; stroke-dasharray: none; stroke-linecap: butt; stroke-dashoffset: 0; stroke-linejoin: miter; stroke-miterlimit: 4; fill: rgb(21,169,220); fill-rule: evenodd; opacity: 0.951;" vector-effect="non-scaling-stroke"  transform=" translate(-158.46, -92.31)" d="M 156.5 89.5 C 161.159 89.0146 162.492 90.848 160.5 95 C 155.728 95.8104 154.395 93.9771 156.5 89.5 Z" stroke-linecap="round" />
</g>
		<g transform="matrix(1 0 0 1 29.51 -29.8)"  >
<path style="stroke: none; stroke-width: 1; stroke-dasharray: none; stroke-linecap: butt; stroke-dashoffset: 0; stroke-linejoin: miter; stroke-miterlimit: 4; fill: rgb(21,146,233); fill-rule: evenodd; opacity: 0.928;" vector-effect="non-scaling-stroke"  transform=" translate(-199.46, -94.5)" d="M 198.5 89.5 C 205.866 92.2119 206.199 95.5452 199.5 99.5 C 193.356 96.5953 193.023 93.262 198.5 89.5 Z" stroke-linecap="round" />
</g>
		<g transform="matrix(1 0 0 1 41.55 -30.56)"  >
<path style="stroke: none; stroke-width: 1; stroke-dasharray: none; stroke-linecap: butt; stroke-dashoffset: 0; stroke-linejoin: miter; stroke-miterlimit: 4; fill: rgb(19,121,247); fill-rule: evenodd; opacity: 0.898;" vector-effect="non-scaling-stroke"  transform=" translate(-211.5, -93.75)" d="M 210.5 90.5 C 213.243 90.0772 214.576 91.2439 214.5 94 C 212.498 98.2647 210.498 98.098 208.5 93.5 C 208.942 92.2613 209.609 91.2613 210.5 90.5 Z" stroke-linecap="round" />
</g>
		<g transform="matrix(1 0 0 1 -42.53 -30.3)"  >
<path style="stroke: none; stroke-width: 1; stroke-dasharray: none; stroke-linecap: butt; stroke-dashoffset: 0; stroke-linejoin: miter; stroke-miterlimit: 4; fill: rgb(20,120,249); fill-rule: evenodd; opacity: 0.992;" vector-effect="non-scaling-stroke"  transform=" translate(-127.42, -94)" d="M 125.5 90.5 C 131.332 91.8177 131.832 94.1511 127 97.5 C 124.354 95.6332 123.854 93.2999 125.5 90.5 Z" stroke-linecap="round" />
</g>
		<g transform="matrix(1 0 0 1 -0.45 -31.8)"  >
<path style="stroke: none; stroke-width: 1; stroke-dasharray: none; stroke-linecap: butt; stroke-dashoffset: 0; stroke-linejoin: miter; stroke-miterlimit: 4; fill: rgb(22,175,217); fill-rule: evenodd; opacity: 0.928;" vector-effect="non-scaling-stroke"  transform=" translate(-169.5, -92.5)" d="M 174.5 95.5 C 171.167 95.5 167.833 95.5 164.5 95.5 C 164.007 91.6618 165.674 89.6618 169.5 89.5 C 173.326 89.6618 174.993 91.6618 174.5 95.5 Z" stroke-linecap="round" />
</g>
		<g transform="matrix(1 0 0 1 -29.76 -28.8)"  >
<path style="stroke: none; stroke-width: 1; stroke-dasharray: none; stroke-linecap: butt; stroke-dashoffset: 0; stroke-linejoin: miter; stroke-miterlimit: 4; fill: rgb(21,151,231); fill-rule: evenodd; opacity: 0.831;" vector-effect="non-scaling-stroke"  transform=" translate(-140.18, -95.5)" d="M 142.5 91.5 C 145.043 95.1322 144.043 97.7989 139.5 99.5 C 138.261 99.0576 137.261 98.3909 136.5 97.5 C 138.167 95.1667 140.167 93.1667 142.5 91.5 Z" stroke-linecap="round" />
</g>
		<g transform="matrix(1 0 0 1 -18.86 -25.8)"  >
<path style="stroke: none; stroke-width: 1; stroke-dasharray: none; stroke-linecap: butt; stroke-dashoffset: 0; stroke-linejoin: miter; stroke-miterlimit: 4; fill: rgb(23,169,220); fill-rule: evenodd; opacity: 0.876;" vector-effect="non-scaling-stroke"  transform=" translate(-151.09, -98.5)" d="M 155.5 96.5 C 152.467 98.016 149.8 100.016 147.5 102.5 C 145.565 98.2075 147.065 95.5408 152 94.5 C 153.459 94.8082 154.626 95.4749 155.5 96.5 Z" stroke-linecap="round" />
</g>
		<g transform="matrix(1 0 0 1 18.49 -25.76)"  >
<path style="stroke: none; stroke-width: 1; stroke-dasharray: none; stroke-linecap: butt; stroke-dashoffset: 0; stroke-linejoin: miter; stroke-miterlimit: 4; fill: rgb(22,170,220); fill-rule: evenodd; opacity: 0.889;" vector-effect="non-scaling-stroke"  transform=" translate(-188.44, -98.55)" d="M 191.5 102.5 C 189.781 99.7805 187.447 97.7805 184.5 96.5 C 186.246 94.1451 188.246 93.9784 190.5 96 C 192.608 98.0164 192.942 100.183 191.5 102.5 Z" stroke-linecap="round" />
</g>
		<g transform="matrix(1 0 0 1 -17.97 -23.3)"  >
<path style="stroke: none; stroke-width: 1; stroke-dasharray: none; stroke-linecap: butt; stroke-dashoffset: 0; stroke-linejoin: miter; stroke-miterlimit: 4; fill: rgb(22,180,214); fill-rule: evenodd; opacity: 0.917;" vector-effect="non-scaling-stroke"  transform=" translate(-151.98, -101)" d="M 155.5 96.5 C 157.598 100.98 156.265 103.98 151.5 105.5 C 149.739 104.965 148.406 103.965 147.5 102.5 C 149.8 100.016 152.467 98.016 155.5 96.5 Z" stroke-linecap="round" />
</g>
		<g transform="matrix(1 0 0 1 -0.45 -26.81)"  >
<path style="stroke: none; stroke-width: 1; stroke-dasharray: none; stroke-linecap: butt; stroke-dashoffset: 0; stroke-linejoin: miter; stroke-miterlimit: 4; fill: rgb(22,186,210); fill-rule: evenodd; opacity: 0.918;" vector-effect="non-scaling-stroke"  transform=" translate(-169.5, -97.5)" d="M 164.5 95.5 C 167.833 95.5 171.167 95.5 174.5 95.5 C 171.167 100.833 167.833 100.833 164.5 95.5 Z" stroke-linecap="round" />
</g>
		<g transform="matrix(1 0 0 1 17.06 -23.48)"  >
<path style="stroke: none; stroke-width: 1; stroke-dasharray: none; stroke-linecap: butt; stroke-dashoffset: 0; stroke-linejoin: miter; stroke-miterlimit: 4; fill: rgb(22,183,213); fill-rule: evenodd; opacity: 0.949;" vector-effect="non-scaling-stroke"  transform=" translate(-187.01, -100.82)" d="M 184.5 96.5 C 187.447 97.7805 189.781 99.7805 191.5 102.5 C 189.659 105.426 187.325 105.926 184.5 104 C 181.86 101.379 181.86 98.8794 184.5 96.5 Z" stroke-linecap="round" />
</g>
		<g transform="matrix(1 0 0 1 -39.48 -19.72)"  >
<path style="stroke: none; stroke-width: 1; stroke-dasharray: none; stroke-linecap: butt; stroke-dashoffset: 0; stroke-linejoin: miter; stroke-miterlimit: 4; fill: rgb(20,139,237); fill-rule: evenodd; opacity: 0.897;" vector-effect="non-scaling-stroke"  transform=" translate(-130.47, -104.58)" d="M 133.5 101.5 C 132.227 103.713 131.227 106.046 130.5 108.5 C 129.5 108.5 128.5 108.5 127.5 108.5 C 127.338 106.473 127.505 104.473 128 102.5 C 129.678 100.447 131.511 100.113 133.5 101.5 Z" stroke-linecap="round" />
</g>
		<g transform="matrix(1 0 0 1 39.05 -19.6)"  >
<path style="stroke: none; stroke-width: 1; stroke-dasharray: none; stroke-linecap: butt; stroke-dashoffset: 0; stroke-linejoin: miter; stroke-miterlimit: 4; fill: rgb(19,139,237); fill-rule: evenodd; opacity: 0.888;" vector-effect="non-scaling-stroke"  transform=" translate(-209, -104.7)" d="M 205.5 101.5 C 209.076 99.9963 211.409 101.33 212.5 105.5 C 212.121 107.213 211.121 108.213 209.5 108.5 C 208.905 105.683 207.572 103.35 205.5 101.5 Z" stroke-linecap="round" />
</g>
		<g transform="matrix(1 0 0 1 -36.5 -19.27)"  >
<path style="stroke: none; stroke-width: 1; stroke-dasharray: none; stroke-linecap: butt; stroke-dashoffset: 0; stroke-linejoin: miter; stroke-miterlimit: 4; fill: rgb(21,149,232); fill-rule: evenodd; opacity: 0.975;" vector-effect="non-scaling-stroke"  transform=" translate(-133.45, -105.04)" d="M 133.5 101.5 C 136.139 102.706 136.972 104.706 136 107.5 C 134.301 108.406 132.467 108.739 130.5 108.5 C 131.227 106.046 132.227 103.713 133.5 101.5 Z" stroke-linecap="round" />
</g>
		<g transform="matrix(1 0 0 1 36.05 -19.23)"  >
<path style="stroke: none; stroke-width: 1; stroke-dasharray: none; stroke-linecap: butt; stroke-dashoffset: 0; stroke-linejoin: miter; stroke-miterlimit: 4; fill: rgb(20,148,232); fill-rule: evenodd; opacity: 0.965;" vector-effect="non-scaling-stroke"  transform=" translate(-206, -105.08)" d="M 205.5 101.5 C 207.572 103.35 208.905 105.683 209.5 108.5 C 206.119 109.112 203.786 107.946 202.5 105 C 202.707 103.05 203.707 101.884 205.5 101.5 Z" stroke-linecap="round" />
</g>
		<g transform="matrix(1 0 0 1 -27.8 -19.6)"  >
<path style="stroke: none; stroke-width: 1; stroke-dasharray: none; stroke-linecap: butt; stroke-dashoffset: 0; stroke-linejoin: miter; stroke-miterlimit: 4; fill: rgb(21,164,222); fill-rule: evenodd; opacity: 0.61;" vector-effect="non-scaling-stroke"  transform=" translate(-142.15, -104.7)" d="M 139.5 101.5 C 142.55 100.923 144.55 102.09 145.5 105 C 143.784 108.475 141.617 108.975 139 106.5 C 138.616 104.803 138.782 103.137 139.5 101.5 Z" stroke-linecap="round" />
</g>
		<g transform="matrix(1 0 0 1 -7.92 -20.3)"  >
<path style="stroke: none; stroke-width: 1; stroke-dasharray: none; stroke-linecap: butt; stroke-dashoffset: 0; stroke-linejoin: miter; stroke-miterlimit: 4; fill: rgb(23,201,202); fill-rule: evenodd; opacity: 0.863;" vector-effect="non-scaling-stroke"  transform=" translate(-162.03, -104)" d="M 161.5 100.5 C 166.571 102.534 166.738 104.868 162 107.5 C 157.678 105.377 157.512 103.043 161.5 100.5 Z" stroke-linecap="round" />
</g>
		<g transform="matrix(1 0 0 1 5.52 -21)"  >
<path style="stroke: none; stroke-width: 1; stroke-dasharray: none; stroke-linecap: butt; stroke-dashoffset: 0; stroke-linejoin: miter; stroke-miterlimit: 4; fill: rgb(23,201,201); fill-rule: evenodd; opacity: 0.892;" vector-effect="non-scaling-stroke"  transform=" translate(-175.46, -103.31)" d="M 173.5 100.5 C 178.159 100.015 179.492 101.848 177.5 106 C 172.728 106.81 171.395 104.977 173.5 100.5 Z" stroke-linecap="round" />
</g>
		<g transform="matrix(1 0 0 1 26.78 -20.06)"  >
<path style="stroke: none; stroke-width: 1; stroke-dasharray: none; stroke-linecap: butt; stroke-dashoffset: 0; stroke-linejoin: miter; stroke-miterlimit: 4; fill: rgb(21,168,220); fill-rule: evenodd; opacity: 0.93;" vector-effect="non-scaling-stroke"  transform=" translate(-196.73, -104.24)" d="M 194.5 101.5 C 196.288 101.215 197.955 101.548 199.5 102.5 C 200.553 105.953 199.219 107.453 195.5 107 C 193.365 105.444 193.032 103.611 194.5 101.5 Z" stroke-linecap="round" />
</g>
		<g transform="matrix(1 0 0 1 -49.95 -17.34)"  >
<path style="stroke: none; stroke-width: 1; stroke-dasharray: none; stroke-linecap: butt; stroke-dashoffset: 0; stroke-linejoin: miter; stroke-miterlimit: 4; fill: rgb(19,117,251); fill-rule: evenodd; opacity: 0.892;" vector-effect="non-scaling-stroke"  transform=" translate(-120, -106.96)" d="M 117.5 105.5 C 120.045 105.151 122.045 105.984 123.5 108 C 121.098 108.814 118.765 108.647 116.5 107.5 C 116.863 106.817 117.196 106.15 117.5 105.5 Z" stroke-linecap="round" />
</g>
		<g transform="matrix(1 0 0 1 49.55 -17.32)"  >
<path style="stroke: none; stroke-width: 1; stroke-dasharray: none; stroke-linecap: butt; stroke-dashoffset: 0; stroke-linejoin: miter; stroke-miterlimit: 4; fill: rgb(19,117,250); fill-rule: evenodd; opacity: 0.925;" vector-effect="non-scaling-stroke"  transform=" translate(-219.5, -106.99)" d="M 216.5 105.5 C 218.977 105.051 220.977 105.717 222.5 107.5 C 220.604 108.466 218.604 108.799 216.5 108.5 C 216.5 107.5 216.5 106.5 216.5 105.5 Z" stroke-linecap="round" />
</g>
		<g transform="matrix(1 0 0 1 -87.08 -0.15)"  >
<path style="stroke: none; stroke-width: 1; stroke-dasharray: none; stroke-linecap: butt; stroke-dashoffset: 0; stroke-linejoin: miter; stroke-miterlimit: 4; fill: rgb(50,50,50); fill-rule: evenodd; opacity: 0.684;" vector-effect="non-scaling-stroke"  transform=" translate(-82.87, -124.16)" d="M 80.5 111.5 C 85.0321 111.074 89.1988 112.074 93 114.5 C 93.4107 117.823 92.2441 117.99 89.5 115 C 76.5149 113.801 72.3482 119.301 77 131.5 C 82 135.5 87 135.5 92 131.5 C 93.951 133.137 93.7843 134.637 91.5 136 C 76.5044 139.336 70.3377 133.502 73 118.5 C 74.7424 115.254 77.2424 112.921 80.5 111.5 Z" stroke-linecap="round" />
</g>
		<g transform="matrix(1 0 0 1 -62.45 0.2)"  >
<path style="stroke: none; stroke-width: 1; stroke-dasharray: none; stroke-linecap: butt; stroke-dashoffset: 0; stroke-linejoin: miter; stroke-miterlimit: 4; fill: rgb(50,50,50); fill-rule: evenodd; opacity: 0.75;" vector-effect="non-scaling-stroke"  transform=" translate(-107.5, -124.5)" d="M 97.5 111.5 C 98.5 111.5 99.5 111.5 100.5 111.5 C 100.5 115.5 100.5 119.5 100.5 123.5 C 105.5 123.5 110.5 123.5 115.5 123.5 C 115.176 119.445 115.509 115.445 116.5 111.5 C 117.833 120.167 117.833 128.833 116.5 137.5 C 115.511 133.893 115.177 130.226 115.5 126.5 C 110.5 126.5 105.5 126.5 100.5 126.5 C 100.5 130.167 100.5 133.833 100.5 137.5 C 99.5 137.5 98.5 137.5 97.5 137.5 C 97.5 128.833 97.5 120.167 97.5 111.5 Z" stroke-linecap="round" />
</g>
		<g transform="matrix(1 0 0 1 -37.51 0.14)"  >
<path style="stroke: none; stroke-width: 1; stroke-dasharray: none; stroke-linecap: butt; stroke-dashoffset: 0; stroke-linejoin: miter; stroke-miterlimit: 4; fill: rgb(50,50,50); fill-rule: evenodd; opacity: 0.696;" vector-effect="non-scaling-stroke"  transform=" translate(-132.44, -124.44)" d="M 122.5 111.5 C 123.5 111.5 124.5 111.5 125.5 111.5 C 125.334 118.175 125.5 124.842 126 131.5 C 131.135 135.957 135.468 135.29 139 129.5 C 139.17 123.472 139.67 117.472 140.5 111.5 C 141.086 111.709 141.586 112.043 142 112.5 C 142.829 119.234 142.496 125.901 141 132.5 C 134.639 139.331 128.639 138.998 123 131.5 C 122.5 124.842 122.334 118.175 122.5 111.5 Z" stroke-linecap="round" />
</g>
		<g transform="matrix(1 0 0 1 -13.56 0.09)"  >
<path style="stroke: none; stroke-width: 1; stroke-dasharray: none; stroke-linecap: butt; stroke-dashoffset: 0; stroke-linejoin: miter; stroke-miterlimit: 4; fill: rgb(51,51,51); fill-rule: evenodd; opacity: 0.698;" vector-effect="non-scaling-stroke"  transform=" translate(-156.39, -124.4)" d="M 146.5 111.5 C 152.68 110.829 158.514 111.829 164 114.5 C 167.702 121.167 165.868 125.667 158.5 128 C 161 130.5 163.5 133 166 135.5 C 166.591 136.483 166.257 137.15 165 137.5 C 161.179 135.012 158.012 131.846 155.5 128 C 153.527 127.505 151.527 127.338 149.5 127.5 C 149.5 130.833 149.5 134.167 149.5 137.5 C 148.5 137.5 147.5 137.5 146.5 137.5 C 146.5 128.833 146.5 120.167 146.5 111.5 Z M 149.5 114.5 C 153.182 114.335 156.848 114.501 160.5 115 C 163.487 117.877 163.821 120.877 161.5 124 C 157.605 125.266 153.605 125.766 149.5 125.5 C 149.5 121.833 149.5 118.167 149.5 114.5 Z" stroke-linecap="round" />
</g>
		<g transform="matrix(1 0 0 1 9.5 -0.23)"  >
<path style="stroke: none; stroke-width: 1; stroke-dasharray: none; stroke-linecap: butt; stroke-dashoffset: 0; stroke-linejoin: miter; stroke-miterlimit: 4; fill: rgb(50,50,50); fill-rule: evenodd; opacity: 0.695;" vector-effect="non-scaling-stroke"  transform=" translate(-179.45, -124.08)" d="M 176.5 111.5 C 181.982 110.595 186.649 112.095 190.5 116 C 188.806 117.387 187.14 117.054 185.5 115 C 172.515 113.801 168.348 119.301 173 131.5 C 178 135.5 183 135.5 188 131.5 C 190.878 132.791 190.712 134.291 187.5 136 C 172.504 139.336 166.338 133.502 169 118.5 C 170.742 115.254 173.242 112.921 176.5 111.5 Z" stroke-linecap="round" />
</g>
		<g transform="matrix(1 0 0 1 34.05 0.2)"  >
<path style="stroke: none; stroke-width: 1; stroke-dasharray: none; stroke-linecap: butt; stroke-dashoffset: 0; stroke-linejoin: miter; stroke-miterlimit: 4; fill: rgb(50,50,50); fill-rule: evenodd; opacity: 0.736;" vector-effect="non-scaling-stroke"  transform=" translate(-204, -124.5)" d="M 193.5 111.5 C 194.5 111.5 195.5 111.5 196.5 111.5 C 196.5 115.5 196.5 119.5 196.5 123.5 C 201.5 123.5 206.5 123.5 211.5 123.5 C 211.176 119.445 211.509 115.445 212.5 111.5 C 213.086 111.709 213.586 112.043 214 112.5 C 214.815 120.746 214.648 128.912 213.5 137 C 213.167 137.167 212.833 137.333 212.5 137.5 C 211.511 133.893 211.177 130.226 211.5 126.5 C 206.5 126.5 201.5 126.5 196.5 126.5 C 196.5 130.167 196.5 133.833 196.5 137.5 C 195.5 137.5 194.5 137.5 193.5 137.5 C 193.5 128.833 193.5 120.167 193.5 111.5 Z" stroke-linecap="round" />
</g>
		<g transform="matrix(1 0 0 1 50.05 0.2)"  >
<path style="stroke: none; stroke-width: 1; stroke-dasharray: none; stroke-linecap: butt; stroke-dashoffset: 0; stroke-linejoin: miter; stroke-miterlimit: 4; fill: rgb(50,50,50); fill-rule: evenodd; opacity: 0.616;" vector-effect="non-scaling-stroke"  transform=" translate(-220, -124.5)" d="M 218.5 111.5 C 219.5 111.5 220.5 111.5 221.5 111.5 C 221.5 120.167 221.5 128.833 221.5 137.5 C 220.5 137.5 219.5 137.5 218.5 137.5 C 218.5 128.833 218.5 120.167 218.5 111.5 Z" stroke-linecap="round" />
</g>
		<g transform="matrix(1 0 0 1 64.52 0.2)"  >
<path style="stroke: none; stroke-width: 1; stroke-dasharray: none; stroke-linecap: butt; stroke-dashoffset: 0; stroke-linejoin: miter; stroke-miterlimit: 4; fill: rgb(51,51,51); fill-rule: evenodd; opacity: 0.609;" vector-effect="non-scaling-stroke"  transform=" translate(-234.47, -124.5)" d="M 225.5 111.5 C 231.5 111.5 237.5 111.5 243.5 111.5 C 243.5 112.5 243.5 113.5 243.5 114.5 C 238.5 114.5 233.5 114.5 228.5 114.5 C 228.5 117.5 228.5 120.5 228.5 123.5 C 233.167 123.5 237.833 123.5 242.5 123.5 C 242.5 124.5 242.5 125.5 242.5 126.5 C 237.833 126.5 233.167 126.5 228.5 126.5 C 228.823 130.226 228.489 133.893 227.5 137.5 C 226.914 137.291 226.414 136.957 226 136.5 C 225.5 128.173 225.334 119.84 225.5 111.5 Z" stroke-linecap="round" />
</g>
		<g transform="matrix(1 0 0 1 86.55 0.17)"  >
<path style="stroke: none; stroke-width: 1; stroke-dasharray: none; stroke-linecap: butt; stroke-dashoffset: 0; stroke-linejoin: miter; stroke-miterlimit: 4; fill: rgb(50,50,50); fill-rule: evenodd; opacity: 0.742;" vector-effect="non-scaling-stroke"  transform=" translate(-256.5, -124.48)" d="M 245.5 111.5 C 246.822 111.33 247.989 111.663 249 112.5 C 251.018 116.551 253.518 120.217 256.5 123.5 C 258.864 120.301 261.03 116.968 263 113.5 C 264.241 111.579 265.741 111.246 267.5 112.5 C 264.136 117.366 260.969 122.366 258 127.5 C 257.824 130.882 257.324 134.215 256.5 137.5 C 255.914 137.291 255.414 136.957 255 136.5 C 254.667 132.833 254.333 129.167 254 125.5 C 250.893 120.944 248.06 116.277 245.5 111.5 Z" stroke-linecap="round" />
</g>
		<g transform="matrix(1 0 0 1 -49.95 17.66)"  >
<path style="stroke: none; stroke-width: 1; stroke-dasharray: none; stroke-linecap: butt; stroke-dashoffset: 0; stroke-linejoin: miter; stroke-miterlimit: 4; fill: rgb(19,116,250); fill-rule: evenodd; opacity: 0.836;" vector-effect="non-scaling-stroke"  transform=" translate(-120, -141.97)" d="M 116.5 141.5 C 118.693 140.203 121.027 140.203 123.5 141.5 C 121.26 144.038 118.927 144.038 116.5 141.5 Z" stroke-linecap="round" />
</g>
		<g transform="matrix(1 0 0 1 -37.14 20.12)"  >
<path style="stroke: none; stroke-width: 1; stroke-dasharray: none; stroke-linecap: butt; stroke-dashoffset: 0; stroke-linejoin: miter; stroke-miterlimit: 4; fill: rgb(20,145,234); fill-rule: evenodd; opacity: 0.911;" vector-effect="non-scaling-stroke"  transform=" translate(-132.81, -144.42)" d="M 129.5 140.5 C 135.725 139.649 137.558 141.982 135 147.5 C 134.329 148.252 133.496 148.586 132.5 148.5 C 130.94 146.046 129.94 143.38 129.5 140.5 Z" stroke-linecap="round" />
</g>
		<g transform="matrix(1 0 0 1 37.42 20.2)"  >
<path style="stroke: none; stroke-width: 1; stroke-dasharray: none; stroke-linecap: butt; stroke-dashoffset: 0; stroke-linejoin: miter; stroke-miterlimit: 4; fill: rgb(20,141,236); fill-rule: evenodd; opacity: 0.832;" vector-effect="non-scaling-stroke"  transform=" translate(-207.37, -144.5)" d="M 203.5 140.5 C 206.167 140.5 208.833 140.5 211.5 140.5 C 212.89 144.388 211.556 147.055 207.5 148.5 C 202.999 147.349 201.665 144.682 203.5 140.5 Z" stroke-linecap="round" />
</g>
		<g transform="matrix(1 0 0 1 49.05 17.71)"  >
<path style="stroke: none; stroke-width: 1; stroke-dasharray: none; stroke-linecap: butt; stroke-dashoffset: 0; stroke-linejoin: miter; stroke-miterlimit: 4; fill: rgb(19,116,251); fill-rule: evenodd; opacity: 0.916;" vector-effect="non-scaling-stroke"  transform=" translate(-219, -142.01)" d="M 215.5 141.5 C 217.693 140.203 220.027 140.203 222.5 141.5 C 220.193 144.158 217.859 144.158 215.5 141.5 Z" stroke-linecap="round" />
</g>
		<g transform="matrix(1 0 0 1 -39.95 20.2)"  >
<path style="stroke: none; stroke-width: 1; stroke-dasharray: none; stroke-linecap: butt; stroke-dashoffset: 0; stroke-linejoin: miter; stroke-miterlimit: 4; fill: rgb(20,133,240); fill-rule: evenodd; opacity: 0.829;" vector-effect="non-scaling-stroke"  transform=" translate(-130, -144.5)" d="M 129.5 140.5 C 129.94 143.38 130.94 146.046 132.5 148.5 C 129.178 148.511 127.511 146.845 127.5 143.5 C 127.64 141.97 128.307 140.97 129.5 140.5 Z" stroke-linecap="round" />
</g>
		<g transform="matrix(1 0 0 1 27.29 19.89)"  >
<path style="stroke: none; stroke-width: 1; stroke-dasharray: none; stroke-linecap: butt; stroke-dashoffset: 0; stroke-linejoin: miter; stroke-miterlimit: 4; fill: rgb(21,164,223); fill-rule: evenodd; opacity: 0.915;" vector-effect="non-scaling-stroke"  transform=" translate(-197.24, -144.2)" d="M 194.5 141.5 C 199.123 140.408 200.956 142.075 200 146.5 C 195.325 148.334 193.492 146.667 194.5 141.5 Z" stroke-linecap="round" />
</g>
		<g transform="matrix(1 0 0 1 -6.48 21)"  >
<path style="stroke: none; stroke-width: 1; stroke-dasharray: none; stroke-linecap: butt; stroke-dashoffset: 0; stroke-linejoin: miter; stroke-miterlimit: 4; fill: rgb(22,195,205); fill-rule: evenodd; opacity: 0.839;" vector-effect="non-scaling-stroke"  transform=" translate(-163.46, -145.31)" d="M 161.5 142.5 C 166.159 142.015 167.492 143.848 165.5 148 C 160.728 148.81 159.395 146.977 161.5 142.5 Z" stroke-linecap="round" />
</g>
		<g transform="matrix(1 0 0 1 7.03 20.7)"  >
<path style="stroke: none; stroke-width: 1; stroke-dasharray: none; stroke-linecap: butt; stroke-dashoffset: 0; stroke-linejoin: miter; stroke-miterlimit: 4; fill: rgb(22,195,204); fill-rule: evenodd; opacity: 0.911;" vector-effect="non-scaling-stroke"  transform=" translate(-176.98, -145)" d="M 175.5 141.5 C 181.415 142.665 181.915 144.998 177 148.5 C 173.056 146.845 172.556 144.512 175.5 141.5 Z" stroke-linecap="round" />
</g>
		<g transform="matrix(1 0 0 1 -27.6 20.7)"  >
<path style="stroke: none; stroke-width: 1; stroke-dasharray: none; stroke-linecap: butt; stroke-dashoffset: 0; stroke-linejoin: miter; stroke-miterlimit: 4; fill: rgb(20,162,224); fill-rule: evenodd; opacity: 0.906;" vector-effect="non-scaling-stroke"  transform=" translate(-142.34, -145)" d="M 140.5 141.5 C 145.824 142.307 146.658 144.641 143 148.5 C 141.989 147.663 140.822 147.33 139.5 147.5 C 139.325 145.379 139.659 143.379 140.5 141.5 Z" stroke-linecap="round" />
</g>
		<g transform="matrix(1 0 0 1 -17.96 23.77)"  >
<path style="stroke: none; stroke-width: 1; stroke-dasharray: none; stroke-linecap: butt; stroke-dashoffset: 0; stroke-linejoin: miter; stroke-miterlimit: 4; fill: rgb(22,176,216); fill-rule: evenodd; opacity: 0.895;" vector-effect="non-scaling-stroke"  transform=" translate(-151.99, -148.07)" d="M 154.5 152.5 C 151.553 151.219 149.219 149.219 147.5 146.5 C 149.735 143.059 152.402 142.725 155.5 145.5 C 157.078 148.25 156.745 150.583 154.5 152.5 Z" stroke-linecap="round" />
</g>
		<g transform="matrix(1 0 0 1 16.55 22.95)"  >
<path style="stroke: none; stroke-width: 1; stroke-dasharray: none; stroke-linecap: butt; stroke-dashoffset: 0; stroke-linejoin: miter; stroke-miterlimit: 4; fill: rgb(21,179,214); fill-rule: evenodd; opacity: 0.937;" vector-effect="non-scaling-stroke"  transform=" translate(-186.5, -147.26)" d="M 190.5 145.5 C 188.516 148.164 185.849 149.831 182.5 150.5 C 182.63 144.114 185.296 142.447 190.5 145.5 Z" stroke-linecap="round" />
</g>
		<g transform="matrix(1 0 0 1 -19.39 26.15)"  >
<path style="stroke: none; stroke-width: 1; stroke-dasharray: none; stroke-linecap: butt; stroke-dashoffset: 0; stroke-linejoin: miter; stroke-miterlimit: 4; fill: rgb(20,164,224); fill-rule: evenodd; opacity: 0.905;" vector-effect="non-scaling-stroke"  transform=" translate(-150.56, -150.45)" d="M 147.5 146.5 C 149.219 149.219 151.553 151.219 154.5 152.5 C 152.754 154.855 150.754 155.022 148.5 153 C 146.392 150.984 146.058 148.817 147.5 146.5 Z" stroke-linecap="round" />
</g>
		<g transform="matrix(1 0 0 1 17.48 25.49)"  >
<path style="stroke: none; stroke-width: 1; stroke-dasharray: none; stroke-linecap: butt; stroke-dashoffset: 0; stroke-linejoin: miter; stroke-miterlimit: 4; fill: rgb(21,166,221); fill-rule: evenodd; opacity: 0.837;" vector-effect="non-scaling-stroke"  transform=" translate(-187.43, -149.8)" d="M 190.5 145.5 C 193.276 148.51 192.942 151.344 189.5 154 C 186.386 154.443 184.052 153.276 182.5 150.5 C 185.849 149.831 188.516 148.164 190.5 145.5 Z" stroke-linecap="round" />
</g>
		<g transform="matrix(1 0 0 1 29.51 30.2)"  >
<path style="stroke: none; stroke-width: 1; stroke-dasharray: none; stroke-linecap: butt; stroke-dashoffset: 0; stroke-linejoin: miter; stroke-miterlimit: 4; fill: rgb(21,141,236); fill-rule: evenodd; opacity: 0.911;" vector-effect="non-scaling-stroke"  transform=" translate(-199.46, -154.5)" d="M 198.5 149.5 C 205.866 152.212 206.199 155.545 199.5 159.5 C 193.356 156.595 193.023 153.262 198.5 149.5 Z" stroke-linecap="round" />
</g>
		<g transform="matrix(1 0 0 1 -30.49 30.2)"  >
<path style="stroke: none; stroke-width: 1; stroke-dasharray: none; stroke-linecap: butt; stroke-dashoffset: 0; stroke-linejoin: miter; stroke-miterlimit: 4; fill: rgb(20,140,237); fill-rule: evenodd; opacity: 1;" vector-effect="non-scaling-stroke"  transform=" translate(-139.46, -154.5)" d="M 138.5 149.5 C 145.866 152.212 146.199 155.545 139.5 159.5 C 133.356 156.595 133.023 153.262 138.5 149.5 Z" stroke-linecap="round" />
</g>
		<g transform="matrix(1 0 0 1 -0.45 27.75)"  >
<path style="stroke: none; stroke-width: 1; stroke-dasharray: none; stroke-linecap: butt; stroke-dashoffset: 0; stroke-linejoin: miter; stroke-miterlimit: 4; fill: rgb(21,179,214); fill-rule: evenodd; opacity: 0.874;" vector-effect="non-scaling-stroke"  transform=" translate(-169.5, -152.05)" d="M 174.5 154.5 C 171.272 153.586 167.939 153.253 164.5 153.5 C 168.474 147.997 171.808 148.33 174.5 154.5 Z" stroke-linecap="round" />
</g>
		<g transform="matrix(1 0 0 1 41.9 30.92)"  >
<path style="stroke: none; stroke-width: 1; stroke-dasharray: none; stroke-linecap: butt; stroke-dashoffset: 0; stroke-linejoin: miter; stroke-miterlimit: 4; fill: rgb(19,116,251); fill-rule: evenodd; opacity: 0.932;" vector-effect="non-scaling-stroke"  transform=" translate(-211.85, -155.23)" d="M 209.5 152.5 C 214.828 152.036 216.161 153.869 213.5 158 C 209.266 158.267 207.933 156.434 209.5 152.5 Z" stroke-linecap="round" />
</g>
		<g transform="matrix(1 0 0 1 -42.71 30.89)"  >
<path style="stroke: none; stroke-width: 1; stroke-dasharray: none; stroke-linecap: butt; stroke-dashoffset: 0; stroke-linejoin: miter; stroke-miterlimit: 4; fill: rgb(19,114,252); fill-rule: evenodd; opacity: 0.726;" vector-effect="non-scaling-stroke"  transform=" translate(-127.24, -155.2)" d="M 124.5 152.5 C 129.123 151.408 130.956 153.075 130 157.5 C 125.325 159.334 123.492 157.667 124.5 152.5 Z" stroke-linecap="round" />
</g>
		<g transform="matrix(1 0 0 1 -0.49 32.16)"  >
<path style="stroke: none; stroke-width: 1; stroke-dasharray: none; stroke-linecap: butt; stroke-dashoffset: 0; stroke-linejoin: miter; stroke-miterlimit: 4; fill: rgb(21,169,220); fill-rule: evenodd; opacity: 0.937;" vector-effect="non-scaling-stroke"  transform=" translate(-169.46, -156.46)" d="M 164.5 153.5 C 167.939 153.253 171.272 153.586 174.5 154.5 C 174.511 157.822 172.845 159.489 169.5 159.5 C 165.674 159.338 164.007 157.338 164.5 153.5 Z" stroke-linecap="round" />
</g>
		<g transform="matrix(1 0 0 1 10.31 32.04)"  >
<path style="stroke: none; stroke-width: 1; stroke-dasharray: none; stroke-linecap: butt; stroke-dashoffset: 0; stroke-linejoin: miter; stroke-miterlimit: 4; fill: rgb(21,163,223); fill-rule: evenodd; opacity: 0.944;" vector-effect="non-scaling-stroke"  transform=" translate(-180.26, -156.34)" d="M 178.5 153.5 C 182.485 153.629 183.818 155.463 182.5 159 C 177.728 159.81 176.395 157.977 178.5 153.5 Z" stroke-linecap="round" />
</g>
		<g transform="matrix(1 0 0 1 -10.45 32.64)"  >
<path style="stroke: none; stroke-width: 1; stroke-dasharray: none; stroke-linecap: butt; stroke-dashoffset: 0; stroke-linejoin: miter; stroke-miterlimit: 4; fill: rgb(21,161,224); fill-rule: evenodd; opacity: 0.894;" vector-effect="non-scaling-stroke"  transform=" translate(-159.5, -156.95)" d="M 157.5 153.5 C 160.352 153.352 162.019 154.686 162.5 157.5 C 160.209 161.529 158.209 161.362 156.5 157 C 156.648 155.744 156.982 154.577 157.5 153.5 Z" stroke-linecap="round" />
</g>
		<g transform="matrix(1 0 0 1 -19.85 37.91)"  >
<path style="stroke: none; stroke-width: 1; stroke-dasharray: none; stroke-linecap: butt; stroke-dashoffset: 0; stroke-linejoin: miter; stroke-miterlimit: 4; fill: rgb(21,140,237); fill-rule: evenodd; opacity: 0.98;" vector-effect="non-scaling-stroke"  transform=" translate(-150.1, -162.21)" d="M 148.5 157.5 C 154.023 157.562 155.856 160.229 154 165.5 C 150.066 168.131 147.233 167.131 145.5 162.5 C 145.757 160.308 146.757 158.641 148.5 157.5 Z" stroke-linecap="round" />
</g>
		<g transform="matrix(1 0 0 1 19.09 37.85)"  >
<path style="stroke: none; stroke-width: 1; stroke-dasharray: none; stroke-linecap: butt; stroke-dashoffset: 0; stroke-linejoin: miter; stroke-miterlimit: 4; fill: rgb(21,140,237); fill-rule: evenodd; opacity: 0.928;" vector-effect="non-scaling-stroke"  transform=" translate(-189.03, -162.16)" d="M 187.5 157.5 C 191.017 157.351 193.017 159.018 193.5 162.5 C 191.91 166.977 189.243 167.977 185.5 165.5 C 183.778 162.082 184.444 159.416 187.5 157.5 Z" stroke-linecap="round" />
</g>
		<g transform="matrix(1 0 0 1 -31.16 42.7)"  >
<path style="stroke: none; stroke-width: 1; stroke-dasharray: none; stroke-linecap: butt; stroke-dashoffset: 0; stroke-linejoin: miter; stroke-miterlimit: 4; fill: rgb(19,114,252); fill-rule: evenodd; opacity: 0.907;" vector-effect="non-scaling-stroke"  transform=" translate(-138.79, -167)" d="M 137.5 163.5 C 142.914 164.962 143.414 167.295 139 170.5 C 135.056 168.845 134.556 166.512 137.5 163.5 Z" stroke-linecap="round" />
</g>
		<g transform="matrix(1 0 0 1 -6.92 40.36)"  >
<path style="stroke: none; stroke-width: 1; stroke-dasharray: none; stroke-linecap: butt; stroke-dashoffset: 0; stroke-linejoin: miter; stroke-miterlimit: 4; fill: rgb(20,142,235); fill-rule: evenodd; opacity: 0.889;" vector-effect="non-scaling-stroke"  transform=" translate(-163.03, -164.66)" d="M 167.5 167.5 C 164.43 167.632 161.43 167.299 158.5 166.5 C 160.057 160.984 162.891 160.318 167 164.5 C 167.483 165.448 167.649 166.448 167.5 167.5 Z" stroke-linecap="round" />
</g>
		<g transform="matrix(1 0 0 1 6.15 41.9)"  >
<path style="stroke: none; stroke-width: 1; stroke-dasharray: none; stroke-linecap: butt; stroke-dashoffset: 0; stroke-linejoin: miter; stroke-miterlimit: 4; fill: rgb(20,140,236); fill-rule: evenodd; opacity: 0.826;" vector-effect="non-scaling-stroke"  transform=" translate(-176.1, -166.21)" d="M 174.5 161.5 C 180.022 161.58 181.856 164.247 180 169.5 C 176.027 172.107 173.194 171.107 171.5 166.5 C 171.757 164.308 172.757 162.641 174.5 161.5 Z" stroke-linecap="round" />
</g>
		<g transform="matrix(1 0 0 1 30.27 42.22)"  >
<path style="stroke: none; stroke-width: 1; stroke-dasharray: none; stroke-linecap: butt; stroke-dashoffset: 0; stroke-linejoin: miter; stroke-miterlimit: 4; fill: rgb(19,115,251); fill-rule: evenodd; opacity: 0.966;" vector-effect="non-scaling-stroke"  transform=" translate(-200.22, -166.53)" d="M 198.5 163.5 C 202.485 163.629 203.818 165.463 202.5 169 C 200.866 169.494 199.199 169.66 197.5 169.5 C 197.325 167.379 197.659 165.379 198.5 163.5 Z" stroke-linecap="round" />
</g>
		<g transform="matrix(1 0 0 1 -6.95 44.56)"  >
<path style="stroke: none; stroke-width: 1; stroke-dasharray: none; stroke-linecap: butt; stroke-dashoffset: 0; stroke-linejoin: miter; stroke-miterlimit: 4; fill: rgb(19,133,240); fill-rule: evenodd; opacity: 0.872;" vector-effect="non-scaling-stroke"  transform=" translate(-163, -168.86)" d="M 158.5 166.5 C 161.43 167.299 164.43 167.632 167.5 167.5 C 165.793 171.677 163.126 172.344 159.5 169.5 C 158.873 168.583 158.539 167.583 158.5 166.5 Z" stroke-linecap="round" />
</g>
		<g transform="matrix(1 0 0 1 -16.71 49.89)"  >
<path style="stroke: none; stroke-width: 1; stroke-dasharray: none; stroke-linecap: butt; stroke-dashoffset: 0; stroke-linejoin: miter; stroke-miterlimit: 4; fill: rgb(19,114,252); fill-rule: evenodd; opacity: 0.956;" vector-effect="non-scaling-stroke"  transform=" translate(-153.24, -174.2)" d="M 150.5 171.5 C 155.123 170.408 156.956 172.075 156 176.5 C 151.325 178.334 149.492 176.667 150.5 171.5 Z" stroke-linecap="round" />
</g>
		<g transform="matrix(1 0 0 1 15.64 49.94)"  >
<path style="stroke: none; stroke-width: 1; stroke-dasharray: none; stroke-linecap: butt; stroke-dashoffset: 0; stroke-linejoin: miter; stroke-miterlimit: 4; fill: rgb(19,114,251); fill-rule: evenodd; opacity: 0.96;" vector-effect="non-scaling-stroke"  transform=" translate(-185.59, -174.24)" d="M 183.5 171.5 C 188.159 171.015 189.492 172.848 187.5 177 C 183.126 177.424 181.792 175.591 183.5 171.5 Z" stroke-linecap="round" />
</g>
		<g transform="matrix(1 0 0 1 -0.48 52)"  >
<path style="stroke: none; stroke-width: 1; stroke-dasharray: none; stroke-linecap: butt; stroke-dashoffset: 0; stroke-linejoin: miter; stroke-miterlimit: 4; fill: rgb(19,115,251); fill-rule: evenodd; opacity: 0.843;" vector-effect="non-scaling-stroke"  transform=" translate(-169.46, -176.31)" d="M 167.5 173.5 C 172.159 173.015 173.492 174.848 171.5 179 C 166.728 179.81 165.395 177.977 167.5 173.5 Z" stroke-linecap="round" />
</g>
</g>
</g>
</svg>